<svg width="24" height="24" viewBox="0 0 24 24" fill="none" xmlns="http://www.w3.org/2000/svg">
<path d="M8 3C8.5 3 10.5 7.5 10.5 8C10.5 9 9 10 8.5 11C8 12 9 13 10 14C10.3943 14.3943 12 16 13 15.5C14 15 15 13.5 16 13.5C16.5 13.5 21 15.5 21 16C21 18 19.5 19.5 18 20C16.5 20.5 15.5 20.5 13.5 20C11.5 19.5 10 19 7.5 16.5C5 14 4.5 12.5 4 10.5C3.5 8.5 3.5 7.5 4 6C4.5 4.5 6 3 8 3Z" stroke="white" stroke-width="2" stroke-linecap="round" stroke-linejoin="round"/>
<path d="M14 7.04395C14.6608 7.34725 15.2571 7.76709 15.7624 8.27714C16.2546 8.77392 16.6606 9.35627 16.956 9.99991" stroke="white" stroke-width="2" stroke-linecap="round" stroke-linejoin="round"/>
<path d="M20.748 8.99992C20.3874 7.59918 19.6571 6.34692 18.6672 5.35342C17.6704 4.35302 16.4105 3.61499 15 3.25195" stroke="white" stroke-width="2" stroke-linecap="round" stroke-linejoin="round"/>
</svg>
